<svg id="visual" viewBox="0 0 1440 1024" width="1440" height="1024" xmlns="http://www.w3.org/2000/svg" xmlns:xlink="http://www.w3.org/1999/xlink" version="1.1"><rect x="0" y="0" width="1440" height="1024" fill="#001220"></rect><defs><linearGradient id="grad1_0" x1="28.9%" y1="0%" x2="100%" y2="100%"><stop offset="21.875%" stop-color="#fbae3c" stop-opacity="1"></stop><stop offset="78.125%" stop-color="#fbae3c" stop-opacity="1"></stop></linearGradient></defs><defs><linearGradient id="grad1_1" x1="28.9%" y1="0%" x2="100%" y2="100%"><stop offset="21.875%" stop-color="#fbae3c" stop-opacity="1"></stop><stop offset="78.125%" stop-color="#f48350" stop-opacity="1"></stop></linearGradient></defs><defs><linearGradient id="grad1_2" x1="28.9%" y1="0%" x2="100%" y2="100%"><stop offset="21.875%" stop-color="#d96162" stop-opacity="1"></stop><stop offset="78.125%" stop-color="#f48350" stop-opacity="1"></stop></linearGradient></defs><defs><linearGradient id="grad1_3" x1="28.9%" y1="0%" x2="100%" y2="100%"><stop offset="21.875%" stop-color="#d96162" stop-opacity="1"></stop><stop offset="78.125%" stop-color="#af4b6d" stop-opacity="1"></stop></linearGradient></defs><defs><linearGradient id="grad1_4" x1="28.9%" y1="0%" x2="100%" y2="100%"><stop offset="21.875%" stop-color="#7c3e6b" stop-opacity="1"></stop><stop offset="78.125%" stop-color="#af4b6d" stop-opacity="1"></stop></linearGradient></defs><defs><linearGradient id="grad1_5" x1="28.9%" y1="0%" x2="100%" y2="100%"><stop offset="21.875%" stop-color="#7c3e6b" stop-opacity="1"></stop><stop offset="78.125%" stop-color="#49335c" stop-opacity="1"></stop></linearGradient></defs><defs><linearGradient id="grad1_6" x1="28.9%" y1="0%" x2="100%" y2="100%"><stop offset="21.875%" stop-color="#1d2540" stop-opacity="1"></stop><stop offset="78.125%" stop-color="#49335c" stop-opacity="1"></stop></linearGradient></defs><defs><linearGradient id="grad1_7" x1="28.9%" y1="0%" x2="100%" y2="100%"><stop offset="21.875%" stop-color="#1d2540" stop-opacity="1"></stop><stop offset="78.125%" stop-color="#001220" stop-opacity="1"></stop></linearGradient></defs><defs><linearGradient id="grad2_0" x1="0%" y1="0%" x2="71.1%" y2="100%"><stop offset="21.875%" stop-color="#fbae3c" stop-opacity="1"></stop><stop offset="78.125%" stop-color="#fbae3c" stop-opacity="1"></stop></linearGradient></defs><defs><linearGradient id="grad2_1" x1="0%" y1="0%" x2="71.1%" y2="100%"><stop offset="21.875%" stop-color="#f48350" stop-opacity="1"></stop><stop offset="78.125%" stop-color="#fbae3c" stop-opacity="1"></stop></linearGradient></defs><defs><linearGradient id="grad2_2" x1="0%" y1="0%" x2="71.1%" y2="100%"><stop offset="21.875%" stop-color="#f48350" stop-opacity="1"></stop><stop offset="78.125%" stop-color="#d96162" stop-opacity="1"></stop></linearGradient></defs><defs><linearGradient id="grad2_3" x1="0%" y1="0%" x2="71.1%" y2="100%"><stop offset="21.875%" stop-color="#af4b6d" stop-opacity="1"></stop><stop offset="78.125%" stop-color="#d96162" stop-opacity="1"></stop></linearGradient></defs><defs><linearGradient id="grad2_4" x1="0%" y1="0%" x2="71.1%" y2="100%"><stop offset="21.875%" stop-color="#af4b6d" stop-opacity="1"></stop><stop offset="78.125%" stop-color="#7c3e6b" stop-opacity="1"></stop></linearGradient></defs><defs><linearGradient id="grad2_5" x1="0%" y1="0%" x2="71.1%" y2="100%"><stop offset="21.875%" stop-color="#49335c" stop-opacity="1"></stop><stop offset="78.125%" stop-color="#7c3e6b" stop-opacity="1"></stop></linearGradient></defs><defs><linearGradient id="grad2_6" x1="0%" y1="0%" x2="71.1%" y2="100%"><stop offset="21.875%" stop-color="#49335c" stop-opacity="1"></stop><stop offset="78.125%" stop-color="#1d2540" stop-opacity="1"></stop></linearGradient></defs><defs><linearGradient id="grad2_7" x1="0%" y1="0%" x2="71.1%" y2="100%"><stop offset="21.875%" stop-color="#001220" stop-opacity="1"></stop><stop offset="78.125%" stop-color="#1d2540" stop-opacity="1"></stop></linearGradient></defs><g transform="translate(1440, 0)"><path d="M0 466C-41 436.2 -81.9 406.5 -127.9 393.7C-173.9 381 -225 385.3 -266.9 367.3C-308.7 349.3 -341.5 309 -369.7 268.6C-398 228.3 -421.7 187.9 -440.3 143.1C-459 98.3 -472.4 49.1 -485.9 0L0 0Z" fill="#0c1c30"></path><path d="M0 407.8C-35.8 381.7 -71.7 355.7 -111.9 344.5C-152.2 333.4 -196.8 337.1 -233.5 321.4C-270.1 305.6 -298.8 270.4 -323.5 235C-348.2 199.7 -369 164.4 -385.3 125.2C-401.6 86 -413.4 43 -425.2 0L0 0Z" fill="#312c4f"></path><path d="M0 349.5C-30.7 327.2 -61.4 304.9 -95.9 295.3C-130.5 285.8 -168.7 289 -200.1 275.5C-231.6 262 -256.1 231.7 -277.3 201.5C-298.5 171.2 -316.3 140.9 -330.3 107.3C-344.2 73.7 -354.3 36.9 -364.4 0L0 0Z" fill="#623965"></path><path d="M0 291.3C-25.6 272.6 -51.2 254 -80 246.1C-108.7 238.1 -140.6 240.8 -166.8 229.6C-193 218.3 -213.4 193.1 -231.1 167.9C-248.7 142.7 -263.6 117.4 -275.2 89.4C-286.8 61.4 -295.3 30.7 -303.7 0L0 0Z" fill="#96446e"></path><path d="M0 233C-20.5 218.1 -41 203.2 -64 196.9C-87 190.5 -112.5 192.7 -133.4 183.6C-154.4 174.6 -170.7 154.5 -184.9 134.3C-199 114.1 -210.9 93.9 -220.2 71.5C-229.5 49.1 -236.2 24.6 -243 0L0 0Z" fill="#c55469"></path><path d="M0 174.8C-15.4 163.6 -30.7 152.4 -48 147.7C-65.2 142.9 -84.4 144.5 -100.1 137.7C-115.8 131 -128.1 115.9 -138.6 100.7C-149.2 85.6 -158.1 70.4 -165.1 53.7C-172.1 36.9 -177.2 18.4 -182.2 0L0 0Z" fill="#e9705a"></path><path d="M0 116.5C-10.2 109.1 -20.5 101.6 -32 98.4C-43.5 95.3 -56.2 96.3 -66.7 91.8C-77.2 87.3 -85.4 77.2 -92.4 67.2C-99.5 57.1 -105.4 47 -110.1 35.8C-114.7 24.6 -118.1 12.3 -121.5 0L0 0Z" fill="#fa9845"></path><path d="M0 58.3C-5.1 54.5 -10.2 50.8 -16 49.2C-21.7 47.6 -28.1 48.2 -33.4 45.9C-38.6 43.7 -42.7 38.6 -46.2 33.6C-49.7 28.5 -52.7 23.5 -55 17.9C-57.4 12.3 -59.1 6.1 -60.7 0L0 0Z" fill="#fbae3c"></path></g><g transform="translate(0, 1024)"><path d="M0 -446C53.7 -463.1 107.5 -480.3 150.2 -462.1C192.9 -444 224.5 -390.5 254.5 -350.3C284.5 -310.1 312.7 -283 344.6 -250.4C376.6 -217.8 412.1 -179.6 421.3 -136.9C430.5 -94.2 413.2 -47.1 396 0L0 0Z" fill="#0c1c30"></path><path d="M0 -390.2C47 -405.2 94 -420.2 131.4 -404.4C168.8 -388.5 196.5 -341.7 222.7 -306.5C248.9 -271.3 273.6 -247.6 301.6 -219.1C329.5 -190.5 360.6 -157.1 368.7 -119.8C376.7 -82.5 361.6 -41.2 346.5 0L0 0Z" fill="#312c4f"></path><path d="M0 -334.5C40.3 -347.4 80.6 -360.2 112.6 -346.6C144.6 -333 168.4 -292.9 190.9 -262.7C213.4 -232.5 234.5 -212.3 258.5 -187.8C282.4 -163.3 309.1 -134.7 316 -102.7C322.9 -70.7 309.9 -35.3 297 0L0 0Z" fill="#623965"></path><path d="M0 -278.7C33.6 -289.5 67.2 -300.2 93.8 -288.8C120.5 -277.5 140.3 -244.1 159.1 -218.9C177.8 -193.8 195.5 -176.9 215.4 -156.5C235.3 -136.1 257.6 -112.2 263.3 -85.6C269.1 -58.9 258.3 -29.4 247.5 0L0 0Z" fill="#96446e"></path><path d="M0 -223C26.9 -231.6 53.7 -240.1 75.1 -231.1C96.4 -222 112.3 -195.3 127.3 -175.2C142.2 -155 156.4 -141.5 172.3 -125.2C188.3 -108.9 206.1 -89.8 210.7 -68.4C215.2 -47.1 206.6 -23.6 198 0L0 0Z" fill="#c55469"></path><path d="M0 -167.2C20.1 -173.7 40.3 -180.1 56.3 -173.3C72.3 -166.5 84.2 -146.5 95.4 -131.4C106.7 -116.3 117.3 -106.1 129.2 -93.9C141.2 -81.7 154.6 -67.3 158 -51.3C161.4 -35.3 155 -17.7 148.5 0L0 0Z" fill="#e9705a"></path><path d="M0 -111.5C13.4 -115.8 26.9 -120.1 37.5 -115.5C48.2 -111 56.1 -97.6 63.6 -87.6C71.1 -77.5 78.2 -70.8 86.2 -62.6C94.1 -54.4 103 -44.9 105.3 -34.2C107.6 -23.6 103.3 -11.8 99 0L0 0Z" fill="#fa9845"></path><path d="M0 -55.7C6.7 -57.9 13.4 -60 18.8 -57.8C24.1 -55.5 28.1 -48.8 31.8 -43.8C35.6 -38.8 39.1 -35.4 43.1 -31.3C47.1 -27.2 51.5 -22.4 52.7 -17.1C53.8 -11.8 51.7 -5.9 49.5 0L0 0Z" fill="#fbae3c"></path></g></svg>