<svg xmlns="http://www.w3.org/2000/svg" xmlns:xlink="http://www.w3.org/1999/xlink" id="visual" width="1440" height="1024" version="1.1" viewBox="0 0 1440 1024"><rect width="1440" height="1024" x="0" y="0" fill="#fff"/><path fill="#023" stroke-linecap="round" stroke-linejoin="miter" d="M0 430L34.3 444.5C68.7 459 137.3 488 205.8 494.3C274.3 500.7 342.7 484.3 411.2 472.7C479.7 461 548.3 454 617 460C685.7 466 754.3 485 823 491.5C891.7 498 960.3 492 1028.8 508.3C1097.3 524.7 1165.7 563.3 1234.2 589.2C1302.7 615 1371.3 628 1405.7 634.5L1440 641L1440 1025L1405.7 1025C1371.3 1025 1302.7 1025 1234.2 1025C1165.7 1025 1097.3 1025 1028.8 1025C960.3 1025 891.7 1025 823 1025C754.3 1025 685.7 1025 617 1025C548.3 1025 479.7 1025 411.2 1025C342.7 1025 274.3 1025 205.8 1025C137.3 1025 68.7 1025 34.3 1025L0 1025Z"/></svg>